<mxfile host="app.diagrams.net" agent="Mozilla/5.0 (Macintosh; Intel Mac OS X 10_15_7) AppleWebKit/537.36 (KHTML, like Gecko) Chrome/135.0.0.0 Safari/537.36" version="26.2.14">
  <diagram name="Page-1" id="d77GnJmT2g53ttEVpTbX">
    <mxGraphModel dx="930" dy="599" grid="1" gridSize="10" guides="1" tooltips="1" connect="1" arrows="1" fold="1" page="1" pageScale="1" pageWidth="827" pageHeight="1169" math="0" shadow="0">
      <root>
        <mxCell id="0" />
        <mxCell id="1" parent="0" />
        <mxCell id="Sl1U-rJCF69nDyPHT8gD-1" value="Airlines" style="swimlane;fontStyle=0;childLayout=stackLayout;horizontal=1;startSize=30;horizontalStack=0;resizeParent=1;resizeParentMax=0;resizeLast=0;collapsible=1;marginBottom=0;whiteSpace=wrap;html=1;" vertex="1" parent="1">
          <mxGeometry x="30" y="40" width="170" height="90" as="geometry" />
        </mxCell>
        <mxCell id="Sl1U-rJCF69nDyPHT8gD-2" value="Name TEXT" style="text;strokeColor=none;fillColor=none;align=left;verticalAlign=middle;spacingLeft=4;spacingRight=4;overflow=hidden;points=[[0,0.5],[1,0.5]];portConstraint=eastwest;rotatable=0;whiteSpace=wrap;html=1;" vertex="1" parent="Sl1U-rJCF69nDyPHT8gD-1">
          <mxGeometry y="30" width="170" height="30" as="geometry" />
        </mxCell>
        <mxCell id="Sl1U-rJCF69nDyPHT8gD-3" value="Id INTEGER PRIMARY KEY&amp;nbsp;" style="text;strokeColor=none;fillColor=none;align=left;verticalAlign=middle;spacingLeft=4;spacingRight=4;overflow=hidden;points=[[0,0.5],[1,0.5]];portConstraint=eastwest;rotatable=0;whiteSpace=wrap;html=1;" vertex="1" parent="Sl1U-rJCF69nDyPHT8gD-1">
          <mxGeometry y="60" width="170" height="30" as="geometry" />
        </mxCell>
        <mxCell id="Sl1U-rJCF69nDyPHT8gD-5" value="Airports" style="swimlane;fontStyle=0;childLayout=stackLayout;horizontal=1;startSize=30;horizontalStack=0;resizeParent=1;resizeParentMax=0;resizeLast=0;collapsible=1;marginBottom=0;whiteSpace=wrap;html=1;" vertex="1" parent="1">
          <mxGeometry x="30" y="160" width="170" height="90" as="geometry" />
        </mxCell>
        <mxCell id="Sl1U-rJCF69nDyPHT8gD-6" value="Name TEXT" style="text;strokeColor=none;fillColor=none;align=left;verticalAlign=middle;spacingLeft=4;spacingRight=4;overflow=hidden;points=[[0,0.5],[1,0.5]];portConstraint=eastwest;rotatable=0;whiteSpace=wrap;html=1;" vertex="1" parent="Sl1U-rJCF69nDyPHT8gD-5">
          <mxGeometry y="30" width="170" height="30" as="geometry" />
        </mxCell>
        <mxCell id="Sl1U-rJCF69nDyPHT8gD-7" value="Id INTEGER PRIMARY KEY&amp;nbsp;" style="text;strokeColor=none;fillColor=none;align=left;verticalAlign=middle;spacingLeft=4;spacingRight=4;overflow=hidden;points=[[0,0.5],[1,0.5]];portConstraint=eastwest;rotatable=0;whiteSpace=wrap;html=1;" vertex="1" parent="Sl1U-rJCF69nDyPHT8gD-5">
          <mxGeometry y="60" width="170" height="30" as="geometry" />
        </mxCell>
        <mxCell id="Sl1U-rJCF69nDyPHT8gD-9" value="Flights" style="swimlane;fontStyle=0;childLayout=stackLayout;horizontal=1;startSize=30;horizontalStack=0;resizeParent=1;resizeParentMax=0;resizeLast=0;collapsible=1;marginBottom=0;whiteSpace=wrap;html=1;" vertex="1" parent="1">
          <mxGeometry x="310" y="110" width="220" height="240" as="geometry">
            <mxRectangle x="500" y="290" width="80" height="30" as="alternateBounds" />
          </mxGeometry>
        </mxCell>
        <mxCell id="Sl1U-rJCF69nDyPHT8gD-10" value="Flight_number INTEGER" style="text;strokeColor=none;fillColor=none;align=left;verticalAlign=middle;spacingLeft=4;spacingRight=4;overflow=hidden;points=[[0,0.5],[1,0.5]];portConstraint=eastwest;rotatable=0;whiteSpace=wrap;html=1;" vertex="1" parent="Sl1U-rJCF69nDyPHT8gD-9">
          <mxGeometry y="30" width="220" height="30" as="geometry" />
        </mxCell>
        <mxCell id="Sl1U-rJCF69nDyPHT8gD-11" value="Airline_id INTEGER FOREIGN KEY" style="text;strokeColor=none;fillColor=none;align=left;verticalAlign=middle;spacingLeft=4;spacingRight=4;overflow=hidden;points=[[0,0.5],[1,0.5]];portConstraint=eastwest;rotatable=0;whiteSpace=wrap;html=1;" vertex="1" parent="Sl1U-rJCF69nDyPHT8gD-9">
          <mxGeometry y="60" width="220" height="30" as="geometry" />
        </mxCell>
        <mxCell id="Sl1U-rJCF69nDyPHT8gD-12" value="Deport_airport INTEGER CHECK IN airport_id" style="text;strokeColor=none;fillColor=none;align=left;verticalAlign=middle;spacingLeft=4;spacingRight=4;overflow=hidden;points=[[0,0.5],[1,0.5]];portConstraint=eastwest;rotatable=0;whiteSpace=wrap;html=1;" vertex="1" parent="Sl1U-rJCF69nDyPHT8gD-9">
          <mxGeometry y="90" width="220" height="30" as="geometry" />
        </mxCell>
        <mxCell id="Sl1U-rJCF69nDyPHT8gD-69" value="Heading_airport INTEGER CHECK IN airport_id" style="text;strokeColor=none;fillColor=none;align=left;verticalAlign=middle;spacingLeft=4;spacingRight=4;overflow=hidden;points=[[0,0.5],[1,0.5]];portConstraint=eastwest;rotatable=0;whiteSpace=wrap;html=1;" vertex="1" parent="Sl1U-rJCF69nDyPHT8gD-9">
          <mxGeometry y="120" width="220" height="30" as="geometry" />
        </mxCell>
        <mxCell id="Sl1U-rJCF69nDyPHT8gD-70" value="Departure_time NUMERIC" style="text;strokeColor=none;fillColor=none;align=left;verticalAlign=middle;spacingLeft=4;spacingRight=4;overflow=hidden;points=[[0,0.5],[1,0.5]];portConstraint=eastwest;rotatable=0;whiteSpace=wrap;html=1;" vertex="1" parent="Sl1U-rJCF69nDyPHT8gD-9">
          <mxGeometry y="150" width="220" height="30" as="geometry" />
        </mxCell>
        <mxCell id="Sl1U-rJCF69nDyPHT8gD-71" value="Arrival_time NUMERIC" style="text;strokeColor=none;fillColor=none;align=left;verticalAlign=middle;spacingLeft=4;spacingRight=4;overflow=hidden;points=[[0,0.5],[1,0.5]];portConstraint=eastwest;rotatable=0;whiteSpace=wrap;html=1;" vertex="1" parent="Sl1U-rJCF69nDyPHT8gD-9">
          <mxGeometry y="180" width="220" height="30" as="geometry" />
        </mxCell>
        <mxCell id="Sl1U-rJCF69nDyPHT8gD-72" value="Id INTEGER PRIMARY KEY" style="text;strokeColor=none;fillColor=none;align=left;verticalAlign=middle;spacingLeft=4;spacingRight=4;overflow=hidden;points=[[0,0.5],[1,0.5]];portConstraint=eastwest;rotatable=0;whiteSpace=wrap;html=1;" vertex="1" parent="Sl1U-rJCF69nDyPHT8gD-9">
          <mxGeometry y="210" width="220" height="30" as="geometry" />
        </mxCell>
        <mxCell id="Sl1U-rJCF69nDyPHT8gD-13" value="Passengers" style="swimlane;fontStyle=0;childLayout=stackLayout;horizontal=1;startSize=30;horizontalStack=0;resizeParent=1;resizeParentMax=0;resizeLast=0;collapsible=1;marginBottom=0;whiteSpace=wrap;html=1;" vertex="1" parent="1">
          <mxGeometry x="30" y="290" width="170" height="150" as="geometry" />
        </mxCell>
        <mxCell id="Sl1U-rJCF69nDyPHT8gD-14" value="First_name TEXT" style="text;strokeColor=none;fillColor=none;align=left;verticalAlign=middle;spacingLeft=4;spacingRight=4;overflow=hidden;points=[[0,0.5],[1,0.5]];portConstraint=eastwest;rotatable=0;whiteSpace=wrap;html=1;" vertex="1" parent="Sl1U-rJCF69nDyPHT8gD-13">
          <mxGeometry y="30" width="170" height="30" as="geometry" />
        </mxCell>
        <mxCell id="Sl1U-rJCF69nDyPHT8gD-15" value="Last_name TEXT" style="text;strokeColor=none;fillColor=none;align=left;verticalAlign=middle;spacingLeft=4;spacingRight=4;overflow=hidden;points=[[0,0.5],[1,0.5]];portConstraint=eastwest;rotatable=0;whiteSpace=wrap;html=1;" vertex="1" parent="Sl1U-rJCF69nDyPHT8gD-13">
          <mxGeometry y="60" width="170" height="30" as="geometry" />
        </mxCell>
        <mxCell id="Sl1U-rJCF69nDyPHT8gD-16" value="Age INTEGER" style="text;strokeColor=none;fillColor=none;align=left;verticalAlign=middle;spacingLeft=4;spacingRight=4;overflow=hidden;points=[[0,0.5],[1,0.5]];portConstraint=eastwest;rotatable=0;whiteSpace=wrap;html=1;" vertex="1" parent="Sl1U-rJCF69nDyPHT8gD-13">
          <mxGeometry y="90" width="170" height="30" as="geometry" />
        </mxCell>
        <mxCell id="Sl1U-rJCF69nDyPHT8gD-73" value="id INTIGER PRIMARY KEY" style="text;strokeColor=none;fillColor=none;align=left;verticalAlign=middle;spacingLeft=4;spacingRight=4;overflow=hidden;points=[[0,0.5],[1,0.5]];portConstraint=eastwest;rotatable=0;whiteSpace=wrap;html=1;" vertex="1" parent="Sl1U-rJCF69nDyPHT8gD-13">
          <mxGeometry y="120" width="170" height="30" as="geometry" />
        </mxCell>
        <mxCell id="Sl1U-rJCF69nDyPHT8gD-17" value="Check-Ins" style="swimlane;fontStyle=0;childLayout=stackLayout;horizontal=1;startSize=30;horizontalStack=0;resizeParent=1;resizeParentMax=0;resizeLast=0;collapsible=1;marginBottom=0;whiteSpace=wrap;html=1;" vertex="1" parent="1">
          <mxGeometry x="300" y="430" width="320" height="120" as="geometry" />
        </mxCell>
        <mxCell id="Sl1U-rJCF69nDyPHT8gD-18" value="Datetime NUMERIC DEFAULT CURRENT_TIMESTAMP" style="text;strokeColor=none;fillColor=none;align=left;verticalAlign=middle;spacingLeft=4;spacingRight=4;overflow=hidden;points=[[0,0.5],[1,0.5]];portConstraint=eastwest;rotatable=0;whiteSpace=wrap;html=1;" vertex="1" parent="Sl1U-rJCF69nDyPHT8gD-17">
          <mxGeometry y="30" width="320" height="30" as="geometry" />
        </mxCell>
        <mxCell id="Sl1U-rJCF69nDyPHT8gD-19" value="Flight_id INTEGER FOREIGN KEY" style="text;strokeColor=none;fillColor=none;align=left;verticalAlign=middle;spacingLeft=4;spacingRight=4;overflow=hidden;points=[[0,0.5],[1,0.5]];portConstraint=eastwest;rotatable=0;whiteSpace=wrap;html=1;" vertex="1" parent="Sl1U-rJCF69nDyPHT8gD-17">
          <mxGeometry y="60" width="320" height="30" as="geometry" />
        </mxCell>
        <mxCell id="Sl1U-rJCF69nDyPHT8gD-102" value="passenger_id INTEGER FOREIGN KEY" style="text;strokeColor=none;fillColor=none;align=left;verticalAlign=middle;spacingLeft=4;spacingRight=4;overflow=hidden;points=[[0,0.5],[1,0.5]];portConstraint=eastwest;rotatable=0;whiteSpace=wrap;html=1;" vertex="1" parent="Sl1U-rJCF69nDyPHT8gD-17">
          <mxGeometry y="90" width="320" height="30" as="geometry" />
        </mxCell>
        <mxCell id="Sl1U-rJCF69nDyPHT8gD-83" value="" style="edgeStyle=entityRelationEdgeStyle;fontSize=12;html=1;endArrow=ERzeroToMany;startArrow=ERmandOne;rounded=0;entryX=0;entryY=0.5;entryDx=0;entryDy=0;exitX=1;exitY=0.333;exitDx=0;exitDy=0;exitPerimeter=0;" edge="1" parent="1" target="Sl1U-rJCF69nDyPHT8gD-12">
          <mxGeometry width="100" height="100" relative="1" as="geometry">
            <mxPoint x="200.66" y="90.99000000000001" as="sourcePoint" />
            <mxPoint x="310.00000000000017" y="249.9999999999999" as="targetPoint" />
            <Array as="points">
              <mxPoint x="516.16" y="69.14" />
              <mxPoint x="476.16" y="59.14" />
            </Array>
          </mxGeometry>
        </mxCell>
        <mxCell id="Sl1U-rJCF69nDyPHT8gD-99" value="" style="edgeStyle=entityRelationEdgeStyle;fontSize=12;html=1;endArrow=ERoneToMany;startArrow=ERzeroToMany;rounded=0;entryX=1;entryY=0.8;entryDx=0;entryDy=0;entryPerimeter=0;exitX=0;exitY=0.667;exitDx=0;exitDy=0;exitPerimeter=0;" edge="1" parent="1" source="Sl1U-rJCF69nDyPHT8gD-70" target="Sl1U-rJCF69nDyPHT8gD-6">
          <mxGeometry width="100" height="100" relative="1" as="geometry">
            <mxPoint x="340" y="210" as="sourcePoint" />
            <mxPoint x="240" y="290" as="targetPoint" />
          </mxGeometry>
        </mxCell>
        <mxCell id="Sl1U-rJCF69nDyPHT8gD-100" value="" style="edgeStyle=entityRelationEdgeStyle;fontSize=12;html=1;endArrow=ERoneToMany;startArrow=ERoneToMany;rounded=0;entryX=0;entryY=0.5;entryDx=0;entryDy=0;exitX=1;exitY=0.5;exitDx=0;exitDy=0;" edge="1" parent="1" source="Sl1U-rJCF69nDyPHT8gD-15" target="Sl1U-rJCF69nDyPHT8gD-71">
          <mxGeometry width="100" height="100" relative="1" as="geometry">
            <mxPoint x="220" y="500" as="sourcePoint" />
            <mxPoint x="530" y="310" as="targetPoint" />
          </mxGeometry>
        </mxCell>
        <mxCell id="Sl1U-rJCF69nDyPHT8gD-101" value="" style="edgeStyle=entityRelationEdgeStyle;fontSize=12;html=1;endArrow=ERoneToMany;startArrow=ERmandOne;rounded=0;exitX=1.012;exitY=0.902;exitDx=0;exitDy=0;exitPerimeter=0;" edge="1" parent="1" source="Sl1U-rJCF69nDyPHT8gD-15">
          <mxGeometry width="100" height="100" relative="1" as="geometry">
            <mxPoint x="200" y="580" as="sourcePoint" />
            <mxPoint x="300" y="480" as="targetPoint" />
          </mxGeometry>
        </mxCell>
        <mxCell id="Sl1U-rJCF69nDyPHT8gD-103" value="" style="edgeStyle=entityRelationEdgeStyle;fontSize=12;html=1;endArrow=ERoneToMany;startArrow=ERmandOne;rounded=0;exitX=1.003;exitY=0.235;exitDx=0;exitDy=0;exitPerimeter=0;" edge="1" parent="1" source="Sl1U-rJCF69nDyPHT8gD-69" target="Sl1U-rJCF69nDyPHT8gD-19">
          <mxGeometry width="100" height="100" relative="1" as="geometry">
            <mxPoint x="680" y="410" as="sourcePoint" />
            <mxPoint x="780" y="310" as="targetPoint" />
          </mxGeometry>
        </mxCell>
      </root>
    </mxGraphModel>
  </diagram>
</mxfile>
